<?xml version="1.0" encoding="utf-8"?>
<!-- Generator: Adobe Illustrator 19.2.0, SVG Export Plug-In . SVG Version: 6.00 Build 0)  -->
<svg version="1.1" id="Layer_1" xmlns="http://www.w3.org/2000/svg" xmlns:xlink="http://www.w3.org/1999/xlink" x="0px" y="0px"
	 viewBox="0 0 293.5 50" style="enable-background:new 0 0 293.5 50;" xml:space="preserve">
<style type="text/css">
	.st0{fill:#CC3333;}
	.st1{fill:#333333;}
</style>
<g>
	<path class="st0" d="M4.3,34.1h10.1c0,3.3,1.3,6.2,4,8.6c2.6,2.4,5.8,3.6,9.6,3.7H31c2.6,0,4.8-0.8,6.6-2.5c1.8-1.6,2.7-3.6,2.7-6
		c0-2.1-0.8-3.9-2.3-5.5c-1.5-1.6-3.4-2.5-5.7-2.9c-1,0-2.4-0.1-4.4-0.1c-1.9,0-3.5-0.1-4.6-0.1c-1.1,0-2.5-0.2-4-0.6
		c-1.5-0.3-2.9-0.8-4.1-1.5c-3-1.6-5.4-3.7-7.2-6.4c-1.8-2.7-2.7-5.6-2.7-8.8c0-1.6,0.2-3.2,0.7-4.6l-6.1,6v22.9l6.2,6.2
		C5,40,4.3,37.1,4.3,34.1z"/>
	<path class="st0" d="M51.5,9l-10.6,2.3c-1-2.2-2.6-4-4.8-5.4c-2.2-1.4-4.8-2.1-7.6-2.1v0.1h-3c-2.6,0-4.8,0.8-6.6,2.5
		c-1.8,1.6-2.7,3.6-2.7,5.9c0,2.1,0.8,3.9,2.3,5.5c1.5,1.6,3.4,2.5,5.7,2.9c0.8,0,2.1,0,4.1,0c1.9,0,3.4,0,4.4,0
		c1,0,2.3,0.2,3.7,0.5c1.5,0.3,2.8,0.7,4,1.2c3.2,1.5,5.8,3.7,7.8,6.4c2,2.8,2.9,5.9,2.9,9.3c0,1.3-0.2,2.6-0.4,3.8l5.4-5.3V13.5
		C56,13.5,51.4,8.7,51.5,9z"/>
</g>
<g>
	<path class="st1" d="M84.4,17.5c-0.1,0.1-0.2,0.2-0.3,0.3s-0.2,0.1-0.4,0.1c-0.2,0-0.3-0.1-0.5-0.2c-0.2-0.2-0.5-0.3-0.8-0.5
		c-0.3-0.2-0.7-0.4-1.2-0.5c-0.5-0.2-1-0.2-1.6-0.2c-0.6,0-1.1,0.1-1.6,0.2c-0.5,0.2-0.9,0.4-1.2,0.7c-0.3,0.3-0.5,0.6-0.7,1
		c-0.2,0.4-0.2,0.8-0.2,1.2c0,0.6,0.1,1,0.4,1.4c0.3,0.4,0.6,0.7,1.1,0.9s1,0.5,1.5,0.7c0.6,0.2,1.2,0.4,1.8,0.6s1.2,0.4,1.8,0.7
		s1.1,0.6,1.5,1c0.4,0.4,0.8,0.9,1.1,1.4c0.3,0.6,0.4,1.3,0.4,2.1c0,0.9-0.1,1.7-0.4,2.5s-0.7,1.4-1.3,2c-0.6,0.6-1.3,1-2.1,1.3
		c-0.8,0.3-1.8,0.5-2.8,0.5c-1.3,0-2.5-0.2-3.5-0.7c-1.1-0.5-2-1.1-2.7-1.9l0.8-1.3c0.1-0.1,0.2-0.2,0.3-0.3
		c0.1-0.1,0.2-0.1,0.4-0.1c0.2,0,0.4,0.1,0.7,0.3c0.3,0.2,0.6,0.4,0.9,0.7c0.4,0.3,0.8,0.5,1.4,0.7s1.2,0.3,2,0.3
		c0.6,0,1.2-0.1,1.7-0.3c0.5-0.2,0.9-0.4,1.3-0.7c0.3-0.3,0.6-0.7,0.8-1.1c0.2-0.4,0.3-0.9,0.3-1.5c0-0.6-0.1-1.1-0.4-1.5
		c-0.3-0.4-0.6-0.7-1.1-1c-0.4-0.3-1-0.5-1.5-0.7s-1.2-0.4-1.8-0.6s-1.2-0.4-1.8-0.7s-1.1-0.6-1.5-1c-0.4-0.4-0.8-0.9-1.1-1.5
		c-0.3-0.6-0.4-1.3-0.4-2.2c0-0.7,0.1-1.4,0.4-2c0.3-0.7,0.7-1.2,1.2-1.8c0.5-0.5,1.2-0.9,1.9-1.2c0.8-0.3,1.6-0.5,2.6-0.5
		c1.1,0,2.1,0.2,3,0.5c0.9,0.4,1.7,0.9,2.4,1.5L84.4,17.5z"/>
	<path class="st1" d="M96.6,26.4v7.9h-2.7v-7.9l-7.3-12H89c0.2,0,0.4,0.1,0.6,0.2c0.1,0.1,0.3,0.3,0.4,0.4l4.6,7.8
		c0.2,0.3,0.3,0.6,0.5,0.9c0.1,0.3,0.2,0.6,0.3,0.8c0.1-0.3,0.2-0.6,0.3-0.9c0.1-0.3,0.3-0.6,0.5-0.9l4.6-7.8
		c0.1-0.1,0.2-0.3,0.3-0.4c0.1-0.1,0.3-0.2,0.6-0.2h2.4L96.6,26.4z"/>
	<path class="st1" d="M108.4,14.4c0.1,0.1,0.2,0.2,0.4,0.4l11.6,15c0-0.2,0-0.5-0.1-0.7c0-0.2,0-0.4,0-0.7V14.3h2.4v19.9h-1.4
		c-0.2,0-0.4,0-0.5-0.1c-0.1-0.1-0.3-0.2-0.4-0.4l-11.5-15c0,0.2,0,0.5,0,0.7s0,0.4,0,0.6v14.2h-2.4V14.3h1.4
		C108.1,14.3,108.3,14.4,108.4,14.4z"/>
	<path class="st1" d="M130.5,26v8.3h-2.7V14.3h5.6c1.3,0,2.4,0.1,3.3,0.4c0.9,0.3,1.7,0.6,2.3,1.1c0.6,0.5,1,1.1,1.3,1.7
		c0.3,0.7,0.4,1.4,0.4,2.3c0,0.7-0.1,1.4-0.3,2s-0.5,1.2-1,1.6c-0.4,0.5-0.9,0.9-1.5,1.2c-0.6,0.3-1.3,0.6-2.1,0.8
		c0.3,0.2,0.6,0.5,0.9,0.8l5.8,7.9h-2.4c-0.5,0-0.9-0.2-1.1-0.6l-5.2-7.1c-0.2-0.2-0.3-0.4-0.5-0.5c-0.2-0.1-0.5-0.1-0.8-0.1H130.5z
		 M130.5,24h2.8c0.8,0,1.5-0.1,2.1-0.3c0.6-0.2,1.1-0.5,1.5-0.8c0.4-0.3,0.7-0.8,0.9-1.2c0.2-0.5,0.3-1,0.3-1.6
		c0-1.2-0.4-2.1-1.2-2.7s-2-0.9-3.5-0.9h-3V24z"/>
	<path class="st1" d="M153.7,32.3c0.5,0,1,0,1.5-0.1s0.9-0.1,1.3-0.2s0.8-0.2,1.1-0.4c0.4-0.1,0.7-0.3,1.1-0.5v-4.4h-3.1
		c-0.2,0-0.3-0.1-0.4-0.2c-0.1-0.1-0.2-0.2-0.2-0.4v-1.5h6.1v7.7c-0.5,0.4-1,0.7-1.6,0.9c-0.5,0.3-1.1,0.5-1.7,0.7
		c-0.6,0.2-1.3,0.3-2,0.4c-0.7,0.1-1.5,0.1-2.3,0.1c-1.4,0-2.8-0.2-4-0.7c-1.2-0.5-2.2-1.2-3.1-2.1s-1.6-2-2-3.2
		c-0.5-1.3-0.7-2.6-0.7-4.1c0-1.5,0.2-2.9,0.7-4.2c0.5-1.3,1.2-2.3,2-3.2c0.9-0.9,2-1.6,3.2-2.1s2.7-0.7,4.2-0.7
		c0.8,0,1.5,0.1,2.2,0.2c0.7,0.1,1.3,0.3,1.9,0.5c0.6,0.2,1.1,0.5,1.6,0.8c0.5,0.3,1,0.7,1.4,1.1l-0.8,1.2c-0.2,0.3-0.4,0.4-0.6,0.4
		c-0.1,0-0.3-0.1-0.5-0.2c-0.2-0.1-0.5-0.3-0.8-0.5s-0.6-0.4-1.1-0.5c-0.4-0.2-0.9-0.3-1.5-0.4c-0.6-0.1-1.2-0.2-2-0.2
		c-1.1,0-2.1,0.2-3,0.5c-0.9,0.4-1.7,0.9-2.3,1.6c-0.6,0.7-1.1,1.5-1.5,2.5s-0.5,2.1-0.5,3.3c0,1.3,0.2,2.4,0.5,3.4
		c0.4,1,0.9,1.8,1.5,2.5c0.6,0.7,1.4,1.2,2.3,1.6C151.6,32.2,152.6,32.3,153.7,32.3z"/>
	<path class="st1" d="M168.4,34.3h-2.7V14.3h2.7V34.3z"/>
	<path class="st1" d="M184,17.5c-0.1,0.1-0.2,0.2-0.3,0.3s-0.2,0.1-0.4,0.1c-0.2,0-0.3-0.1-0.5-0.2c-0.2-0.2-0.5-0.3-0.8-0.5
		c-0.3-0.2-0.7-0.4-1.2-0.5c-0.5-0.2-1-0.2-1.6-0.2c-0.6,0-1.1,0.1-1.6,0.2c-0.5,0.2-0.9,0.4-1.2,0.7s-0.5,0.6-0.7,1
		c-0.2,0.4-0.2,0.8-0.2,1.2c0,0.6,0.1,1,0.4,1.4c0.3,0.4,0.6,0.7,1.1,0.9s1,0.5,1.5,0.7c0.6,0.2,1.2,0.4,1.8,0.6s1.2,0.4,1.8,0.7
		s1.1,0.6,1.5,1c0.4,0.4,0.8,0.9,1.1,1.4c0.3,0.6,0.4,1.3,0.4,2.1c0,0.9-0.1,1.7-0.4,2.5s-0.7,1.4-1.3,2c-0.6,0.6-1.3,1-2.1,1.3
		c-0.8,0.3-1.8,0.5-2.8,0.5c-1.3,0-2.5-0.2-3.5-0.7c-1.1-0.5-2-1.1-2.7-1.9l0.8-1.3c0.1-0.1,0.2-0.2,0.3-0.3
		c0.1-0.1,0.2-0.1,0.4-0.1c0.2,0,0.4,0.1,0.7,0.3c0.3,0.2,0.6,0.4,0.9,0.7c0.4,0.3,0.8,0.5,1.4,0.7s1.2,0.3,2,0.3
		c0.6,0,1.2-0.1,1.7-0.3c0.5-0.2,0.9-0.4,1.3-0.7c0.3-0.3,0.6-0.7,0.8-1.1c0.2-0.4,0.3-0.9,0.3-1.5c0-0.6-0.1-1.1-0.4-1.5
		c-0.3-0.4-0.6-0.7-1.1-1c-0.4-0.3-1-0.5-1.5-0.7s-1.2-0.4-1.8-0.6s-1.2-0.4-1.8-0.7s-1.1-0.6-1.5-1c-0.4-0.4-0.8-0.9-1.1-1.5
		s-0.4-1.3-0.4-2.2c0-0.7,0.1-1.4,0.4-2s0.7-1.2,1.2-1.8c0.5-0.5,1.2-0.9,1.9-1.2c0.8-0.3,1.6-0.5,2.6-0.5c1.1,0,2.1,0.2,3,0.5
		c0.9,0.4,1.7,0.9,2.4,1.5L184,17.5z"/>
	<path class="st1" d="M200.8,14.3v2.2h-9.6v6.6h7.8v2.1h-7.8v6.8h9.6v2.2h-12.3V14.3H200.8z"/>
	<path class="st0" d="M207.4,32h8.6v2.3h-11.3V14.3h2.7V32z"/>
	<path class="st0" d="M231.3,14.3v2.2h-9.6v6.6h7.8v2.1h-7.8v6.8h9.6v2.2H219V14.3H231.3z"/>
	<path class="st0" d="M251.6,34.3h-2.1c-0.2,0-0.4-0.1-0.6-0.2c-0.1-0.1-0.3-0.3-0.3-0.5l-1.9-4.8h-9l-1.9,4.8
		c-0.1,0.2-0.2,0.3-0.3,0.4s-0.4,0.2-0.6,0.2h-2.1l8-19.9h2.7L251.6,34.3z M238.5,26.9h7.4l-3.1-8.1c-0.2-0.5-0.4-1.1-0.6-1.9
		c-0.1,0.4-0.2,0.7-0.3,1.1c-0.1,0.3-0.2,0.6-0.3,0.8L238.5,26.9z"/>
	<path class="st0" d="M257.1,26v8.3h-2.7V14.3h5.6c1.3,0,2.4,0.1,3.3,0.4c0.9,0.3,1.7,0.6,2.3,1.1s1,1.1,1.3,1.7
		c0.3,0.7,0.4,1.4,0.4,2.3c0,0.7-0.1,1.4-0.3,2s-0.5,1.2-1,1.6s-0.9,0.9-1.5,1.2c-0.6,0.3-1.3,0.6-2.1,0.8c0.3,0.2,0.6,0.5,0.9,0.8
		l5.8,7.9h-2.4c-0.5,0-0.9-0.2-1.1-0.6l-5.2-7.1c-0.2-0.2-0.3-0.4-0.5-0.5c-0.2-0.1-0.5-0.1-0.8-0.1H257.1z M257.1,24h2.8
		c0.8,0,1.5-0.1,2.1-0.3c0.6-0.2,1.1-0.5,1.5-0.8c0.4-0.3,0.7-0.8,0.9-1.2s0.3-1,0.3-1.6c0-1.2-0.4-2.1-1.2-2.7
		c-0.8-0.6-2-0.9-3.5-0.9h-3V24z"/>
	<path class="st0" d="M274,14.4c0.1,0.1,0.2,0.2,0.4,0.4l11.6,15c0-0.2,0-0.5-0.1-0.7c0-0.2,0-0.4,0-0.7V14.3h2.4v19.9h-1.4
		c-0.2,0-0.4,0-0.5-0.1s-0.3-0.2-0.4-0.4l-11.5-15c0,0.2,0,0.5,0,0.7c0,0.2,0,0.4,0,0.6v14.2H272V14.3h1.4
		C273.7,14.3,273.9,14.4,274,14.4z"/>
</g>
</svg>
